<mxfile host="app.diagrams.net" modified="2023-12-28T15:32:08.886Z" agent="Mozilla/5.0 (Macintosh; Intel Mac OS X 10_15_7) AppleWebKit/537.36 (KHTML, like Gecko) Chrome/120.0.0.0 Safari/537.36" version="22.1.15" etag="I0OPSm8pCiGhviclPmCJ" type="github">
  <diagram name="Page-1" id="LdaSAeOTk_dMa7KhWTO-">
    <mxGraphModel>
      <root>
        <mxCell id="0" />
        <mxCell id="1" parent="0" />
      </root>
    </mxGraphModel>
  </diagram>
</mxfile>
